<?xml version="1.0" encoding="iso-8859-1"?>
<!-- Generator: Adobe Illustrator 19.1.0, SVG Export Plug-In . SVG Version: 6.00 Build 0)  -->
<svg xmlns="http://www.w3.org/2000/svg" xmlns:xlink="http://www.w3.org/1999/xlink" version="1.1" id="Capa_1" x="0px" y="0px" viewBox="0 0 601.012 601.012" style="enable-background:new 0 0 601.012 601.012;" xml:space="preserve" width="512px" height="512px">
<path d="M502.626,178.592c-12.833-53.471-59.887-91.97-117.636-91.97s-104.803,38.499-117.636,91.97  c-12.833-4.278-27.805-6.416-42.777-6.416c-76.998,0-139.024,62.026-139.024,139.024c0,4.278,0,8.555,0,10.694  C36.36,326.172,0,368.949,0,418.142c0,53.471,42.777,96.247,96.247,96.247h256.66c64.165,0,117.636-53.471,117.636-117.636  c0-4.278,0-6.416,0-10.694h25.666c57.749,0,104.803-47.055,104.803-104.803C598.873,227.787,556.097,182.871,502.626,178.592  L502.626,178.592z M352.907,471.613H96.247c-29.944,0-53.471-23.527-53.471-53.471s23.527-53.471,53.471-53.471  c6.416,17.11,19.249,34.221,34.221,47.055l29.944-32.082c-19.249-19.249-29.944-42.777-29.944-70.581  c-2.139-51.332,40.638-94.109,94.109-94.109c49.193,0,91.97,38.499,96.247,87.692l2.139,19.249h29.944  c40.638,0,74.859,34.221,74.859,74.859S393.545,471.613,352.907,471.613L352.907,471.613z M494.071,343.283h-38.499  c-19.249-36.36-55.61-62.026-98.386-64.165c-8.555-34.221-27.805-62.026-53.471-81.275c4.278-38.499,38.499-70.581,79.137-70.581  s74.859,32.082,79.137,72.72l2.139,19.249h29.944c34.221,0,62.026,27.805,62.026,62.026  C556.097,315.478,528.292,343.283,494.071,343.283z" fill="#FFFFFF"/>
<g>
</g>
<g>
</g>
<g>
</g>
<g>
</g>
<g>
</g>
<g>
</g>
<g>
</g>
<g>
</g>
<g>
</g>
<g>
</g>
<g>
</g>
<g>
</g>
<g>
</g>
<g>
</g>
<g>
</g>
</svg>
